wght100_wdth50.ufo
<glyph name="A" format="2">
	<unicode hex="0041"/>
	<advance width="1383"/>
	<outline>
		<contour>
			<point x="-218.6477050781" y="0" type="line"/>
			<point x="-213.8768920898" y="100.9997558594" type="line"/>
			<point x="-22.6830444336" y="124.9997558594" type="line"/>
			<point x="352.5817871094" y="664.4447021484" type="line"/>
			<point x="981.0036621094" y="1517" type="line"/>
			<point x="1141.2934570312" y="1499" type="line"/>
			<point x="1158.7638549805" y="655" type="line"/>
			<point x="1173.0817260742" y="129.9997558594" type="line"/>
			<point x="1348.188659668" y="99.9997558594" type="line"/>
			<point x="1326.0272216797" y="0" type="line"/>
			<point x="789.5994873047" y="0" type="line"/>
			<point x="812.760925293" y="99.9997558594" type="line"/>
			<point x="993.8678588867" y="133.9997558594" type="line"/>
			<point x="989.5431518555" y="648" type="line"/>
			<point x="891" y="1166" type="line"/>
			<point x="886" y="1287" type="line"/>
			<point x="876" y="1287" type="line"/>
			<point x="799" y="1167" type="line"/>
			<point x="442.518737793" y="614.6665039062" type="line"/>
			<point x="113.6520385742" y="125.9997558594" type="line"/>
			<point x="313.5631713867" y="100.9997558594" type="line"/>
			<point x="308.7923583984" y="0" type="line"/>
		</contour>
		<contour>
			<point x="337.9389038086" y="516.2215576172" type="line"/>
			<point x="406.9649047852" y="625.333984375" type="line"/>
			<point x="711.6683349609" y="543.3344726562" type="line"/>
			<point x="694.6678466797" y="446.5544433594" type="line"/>
		</contour>
		<contour>
			<point x="711.6683349609" y="543.3344726562" type="line"/>
			<point x="1073.2992553711" y="626.0006103516" type="line"/>
			<point x="1075.4005126953" y="520.8883056641" type="line"/>
			<point x="694.6678466797" y="446.5544433594" type="line"/>
		</contour>
	</outline>
	<anchor name="bottom" x="523" y="0"/>
	<anchor name="ogonek" x="1098" y="0"/>
	<anchor name="top" x="954" y="1500"/>
	<anchor name="tonos" x="613" y="1500"/>
</glyph>
<glyph name="D" format="2">
	<unicode hex="0044"/>
	<advance width="1512"/>
	<outline>
		<contour>
			<point x="-48.6950683594" y="0" type="line"/>
			<point x="-48.0551147461" y="99.9997558594" type="line"/>
			<point x="141.8450317383" y="123.9997558594" type="line"/>
			<point x="263.7917480469" y="755" type="line"/>
			<point x="383.0051269531" y="1367.1602783203" type="line"/>
			<point x="181.4055786133" y="1393.1602783203" type="line"/>
			<point x="191.2399902344" y="1500" type="line"/>
			<point x="841.1380615234" y="1500" type="line" smooth="yes"/>
			<point x="1138.4483032227" y="1500"/>
			<point x="1481.8526000977" y="1097.0318603516"/>
			<point x="1422.7888183594" y="746" type="qcurve" smooth="yes"/>
			<point x="1363.0148925781" y="388.8904418945"/>
			<point x="868.9982299805" y="0"/>
			<point x="554.4248046875" y="0" type="qcurve" smooth="yes"/>
		</contour>
		<contour>
			<point x="307.9969482422" y="113.1124267578" type="line"/>
			<point x="334.1204833984" y="107.1124267578"/>
			<point x="517.2478637695" y="98.1124267578"/>
			<point x="574.9013061523" y="98.1124267578" type="qcurve" smooth="yes"/>
			<point x="828.5943603516" y="97.1124267578"/>
			<point x="1193.0766601562" y="435.6672363281"/>
			<point x="1246.7082519531" y="745" type="qcurve" smooth="yes"/>
			<point x="1295.4805297852" y="1028.2216796875"/>
			<point x="1052.3436889648" y="1392.220703125"/>
			<point x="818.1789550781" y="1393.220703125" type="qcurve" smooth="yes"/>
			<point x="758.6350708008" y="1393.220703125"/>
			<point x="586.4517211914" y="1386.220703125"/>
			<point x="560.2186279297" y="1381.220703125" type="qcurve"/>
			<point x="437.9655761719" y="754" type="line"/>
		</contour>
	</outline>
	<anchor name="bottom" x="686" y="0"/>
	<anchor name="center" x="448" y="754"/>
	<anchor name="top" x="827" y="1500"/>
	<anchor name="liga" x="1431" y="0"/>
</glyph>
<glyph name="G" format="2">
	<unicode hex="0047"/>
	<advance width="1407"/>
	<outline>
		<contour>
			<point x="80.2677256426" y="842" type="qcurve" smooth="yes"/>
			<point x="158.2677256426" y="1185"/>
			<point x="662.1485850176" y="1524.2937011719"/>
			<point x="919.0533091387" y="1521.714050293" type="qcurve" smooth="yes"/>
			<point x="1007.6830088457" y="1518.3076782227"/>
			<point x="1189.3828379473" y="1465.7395629883"/>
			<point x="1227.1579233965" y="1442.2855834961" type="qcurve" smooth="yes"/>
			<point x="1258.9363899251" y="1440.2856445312" type="line"/>
			<point x="1285.6395759602" y="1424" type="line"/>
			<point x="1224.1803474446" y="1103.4077148438" type="line"/>
			<point x="1107.0182380696" y="1103.4077148438" type="line"/>
			<point x="1116.5170173665" y="1279.8603515625" type="line"/>
			<point x="1094.869044002" y="1321.7999267578"/>
			<point x="947.4076792559" y="1388.215637207"/>
			<point x="869.3948008379" y="1398.9345092773" type="qcurve" smooth="yes"/>
			<point x="682.9806162676" y="1423.5779418945"/>
			<point x="328.1581675371" y="1135"/>
			<point x="260.6949717363" y="829" type="qcurve" smooth="yes"/>
			<point x="177.9349619707" y="455.4444580078"/>
			<point x="370.6425425371" y="139.7307739258"/>
			<point x="543.0092417559" y="116.3670654297" type="qcurve" smooth="yes"/>
			<point x="661.8398081621" y="98.9241333008"/>
			<point x="899.9715830645" y="155.4459228516"/>
			<point x="1007.4227549395" y="207.3352050781" type="qcurve"/>
			<point x="1079.9963264485" y="561.8802490234" type="line"/>
			<point x="890.1955451985" y="590.440246582" type="line"/>
			<point x="903.0134162923" y="690" type="line"/>
			<point x="1419.0202522298" y="690" type="line"/>
			<point x="1404.5389289876" y="587.8802490234" type="line"/>
			<point x="1245.9301643391" y="561.8802490234" type="line"/>
			<point x="1169.6901741048" y="171.2802734375" type="line"/>
			<point x="1050.4705454668" y="110.6401367188" type="line"/>
			<point x="936.197169002" y="46.4028930664"/>
			<point x="662.3377329668" y="-28.8569335938"/>
			<point x="500.9234263262" y="-10.8569335938" type="qcurve" smooth="yes"/>
			<point x="247.5455576738" y="16.2844848633"/>
			<point x="-10.7322743574" y="444"/>
		</contour>
	</outline>
	<anchor name="bottom" x="667" y="0"/>
	<anchor name="top" x="907" y="1492"/>
</glyph>
<glyph name="H" format="2">
	<unicode hex="0048"/>
	<advance width="1582"/>
	<outline>
		<contour>
			<point x="-54.4931640625" y="0" type="line"/>
			<point x="-48.8532104492" y="98.9997558594" type="line"/>
			<point x="140.8731079102" y="129.9997558594" type="line"/>
			<point x="268.2331542969" y="796" type="line"/>
			<point x="376.7932128906" y="1362.0003051758" type="line"/>
			<point x="182.7109375" y="1393.6002807617" type="line"/>
			<point x="188.4418945312" y="1500" type="line"/>
			<point x="751.2260742188" y="1500" type="line"/>
			<point x="730.1778564453" y="1393.6002807617" type="line"/>
			<point x="546.1467285156" y="1362.0003051758" type="line"/>
			<point x="437.8203125" y="780" type="line"/>
			<point x="310.4602661133" y="129.9997558594" type="line"/>
			<point x="491.8473510742" y="98.9997558594" type="line"/>
			<point x="487.5246582031" y="0" type="line"/>
		</contour>
		<contour>
			<point x="346" y="738" type="line"/>
			<point x="367" y="855" type="line"/>
			<point x="825.1682739258" y="832.6674804688" type="line"/>
			<point x="1248.8060913086" y="834.4453125" type="line"/>
			<point x="1224.4724731445" y="716.5549316406" type="line"/>
			<point x="803.7235717773" y="720.3327636719" type="line"/>
		</contour>
		<contour>
			<point x="834.3930053711" y="0" type="line"/>
			<point x="841.0329589844" y="98.9997558594" type="line"/>
			<point x="1031.7592773438" y="129.9997558594" type="line"/>
			<point x="1155.1193237305" y="789" type="line"/>
			<point x="1259.6793823242" y="1362.0003051758" type="line"/>
			<point x="1090.5971069336" y="1393.6002807617" type="line"/>
			<point x="1096.3280639648" y="1500" type="line"/>
			<point x="1636.0741577148" y="1500" type="line"/>
			<point x="1617.0259399414" y="1393.6002807617" type="line"/>
			<point x="1431.2665405273" y="1362.0003051758" type="line"/>
			<point x="1325.8798217773" y="771" type="line"/>
			<point x="1199.5197753906" y="129.9997558594" type="line"/>
			<point x="1380.6351318359" y="98.9997558594" type="line"/>
			<point x="1376.3124389648" y="0" type="line"/>
		</contour>
	</outline>
	<anchor name="bottom" x="607" y="0"/>
	<anchor name="center" x="820" y="1079"/>
	<anchor name="top" x="950" y="1500"/>
	<anchor name="tonos" x="81" y="1500"/>
	<anchor name="cy_descender" x="1399" y="100"/>
</glyph>
<glyph name="J" format="2">
	<unicode hex="004A"/>
	<advance width="711"/>
	<outline>
		<contour>
			<point x="-196.6236572266" y="-265.3342285156" type="qcurve"/>
			<point x="-166.9565429688" y="-155.9992675781" type="line"/>
			<point x="-144.5157470703" y="-160.2214355469"/>
			<point x="-102.2947387695" y="-161.7769775391"/>
			<point x="-47.6790771484" y="-161.7769775391" type="qcurve" smooth="yes"/>
			<point x="33.2412109375" y="-161.7769775391"/>
			<point x="122.7094726562" y="-51"/>
			<point x="155.7094726562" y="112" type="qcurve" smooth="yes"/>
			<point x="286.7094726562" y="754" type="line"/>
			<point x="397.3895263672" y="1368.1602783203" type="line"/>
			<point x="213.2796020508" y="1393.1602783203" type="line"/>
			<point x="219.8422851562" y="1500" type="line"/>
			<point x="776.3374023438" y="1500" type="line"/>
			<point x="761.7747192383" y="1393.1602783203" type="line"/>
			<point x="573.7366943359" y="1368.1602783203" type="line"/>
			<point x="457.056640625" y="754" type="line"/>
			<point x="339.056640625" y="147" type="line" smooth="yes"/>
			<point x="293.056640625" y="-95"/>
			<point x="106.5283813477" y="-289.3342285156"/>
			<point x="-22.1396484375" y="-289.3342285156" type="qcurve" smooth="yes"/>
			<point x="-90.0096435547" y="-289.3342285156"/>
			<point x="-172.6560668945" y="-275.0008544922"/>
		</contour>
	</outline>
	<anchor name="bottom" x="376" y="-208"/>
	<anchor name="top" x="533" y="1500"/>
	<anchor name="_liga" x="0" y="0"/>
</glyph>
<glyph name="K" format="2">
	<unicode hex="004B"/>
	<advance width="1165"/>
	<outline>
		<contour>
			<point x="-48.5833740234" y="0" type="line"/>
			<point x="-41.2606811523" y="99.9997558594" type="line"/>
			<point x="141.639465332" y="124.9997558594" type="line"/>
			<point x="277.5994873047" y="794" type="line"/>
			<point x="390.319519043" y="1368.1602783203" type="line"/>
			<point x="188.7890014648" y="1393.1602783203" type="line"/>
			<point x="194.3516845703" y="1500" type="line"/>
			<point x="766.2904052734" y="1500" type="line"/>
			<point x="752.727722168" y="1393.1602783203" type="line"/>
			<point x="568.3600463867" y="1368.1602783203" type="line"/>
			<point x="452.1199951172" y="802" type="line"/>
			<point x="315.2666625977" y="124.9997558594" type="line"/>
			<point x="507.6233520508" y="99.9997558594" type="line"/>
			<point x="500.3006591797" y="0" type="line"/>
		</contour>
		<contour>
			<point x="325.32421875" y="565.0960083008" type="line"/>
			<point x="357.6893310547" y="716.6034545898" type="line"/>
			<point x="1007.6307373047" y="1370.1602783203" type="line"/>
			<point x="854.4688720703" y="1390.1602783203" type="line"/>
			<point x="866.0315551758" y="1500" type="line"/>
			<point x="1328.0415649414" y="1500" type="line"/>
			<point x="1316.4788818359" y="1390.1602783203" type="line"/>
			<point x="1155.6326904297" y="1370.1602783203" type="line"/>
		</contour>
		<contour>
			<point x="545.6695556641" y="859.0117797852" type="line"/>
			<point x="675.7345581055" y="970.6119384766" type="line"/>
			<point x="1029.1928710938" y="124.9997558594" type="line"/>
			<point x="1204.3977050781" y="102.9997558594" type="line"/>
			<point x="1193.075012207" y="0" type="line"/>
			<point x="658.7012329102" y="0" type="line"/>
			<point x="669.0239257812" y="102.9997558594" type="line"/>
			<point x="849.9790039062" y="124.9997558594" type="line"/>
		</contour>
	</outline>
	<anchor name="bottom" x="607" y="0"/>
	<anchor name="top" x="896" y="1500"/>
	<anchor name="kai_tail" x="1201" y="100"/>
</glyph>
<glyph name="L" format="2">
	<unicode hex="004C"/>
	<advance width="1106"/>
	<outline>
		<contour>
			<point x="-58.8850097656" y="0" type="line"/>
			<point x="-51.7305908203" y="99.9997558594" type="line"/>
			<point x="141.1695556641" y="127.9997558594" type="line"/>
			<point x="281.2495727539" y="848" type="line"/>
			<point x="376.849609375" y="1377.7202758789" type="line"/>
			<point x="177.330078125" y="1392.7202758789" type="line"/>
			<point x="183.3327636719" y="1500" type="line"/>
			<point x="758.1318359375" y="1500" type="line"/>
			<point x="751.1291503906" y="1392.7202758789" type="line"/>
			<point x="553.7834472656" y="1377.7202758789" type="line"/>
			<point x="435.1834106445" y="754" type="line"/>
			<point x="310.3526000977" y="129.8902587891" type="line"/>
			<point x="334.3526000977" y="102.8902587891" type="line"/>
			<point x="758.1506958008" y="100.8902587891" type="line"/>
			<point x="875.7713012695" y="363.6147460938" type="line"/>
			<point x="992.4934692383" y="363.6147460938" type="line"/>
			<point x="884.0944213867" y="0" type="line"/>
		</contour>
	</outline>
	<anchor name="bottom" x="535" y="0"/>
	<anchor name="centerright" x="755" y="750"/>
	<anchor name="top" x="878" y="1500"/>
	<anchor name="topright" x="804" y="1001"/>
	<anchor name="center" x="397" y="750"/>
	<anchor name="liga" x="1104" y="0"/>
</glyph>
<glyph name="M" format="2">
	<unicode hex="004D"/>
	<advance width="1881"/>
	<outline>
		<contour>
			<point x="-97.302734375" y="0" type="line"/>
			<point x="-89.9800415039" y="99.9997558594" type="line"/>
			<point x="120.1049194336" y="140.9997558594" type="line"/>
			<point x="252.5716552734" y="753" type="line"/>
			<point x="369.7849731445" y="1349.1602783203" type="line"/>
			<point x="171.5151977539" y="1395.1602783203" type="line"/>
			<point x="179.0778808594" y="1500" type="line"/>
			<point x="611.8981323242" y="1500" type="line"/>
			<point x="726.9904785156" y="723.2677612305" type="line"/>
			<point x="815" y="327" type="line"/>
			<point x="831" y="213" type="line"/>
			<point x="841" y="213" type="line"/>
			<point x="900" y="327" type="line"/>
			<point x="1152.2766723633" y="764.9475097656" type="line"/>
			<point x="1529.8491821289" y="1500" type="line"/>
			<point x="1930.59375" y="1500" type="line"/>
			<point x="1914.3772583008" y="1394.1602783203" type="line"/>
			<point x="1725.1074829102" y="1358.1602783203" type="line"/>
			<point x="1616.6274414062" y="756" type="line"/>
			<point x="1493.1473999023" y="134.9997558594" type="line"/>
			<point x="1693.1344604492" y="99.9997558594" type="line"/>
			<point x="1686.8117675781" y="0" type="line"/>
			<point x="1122.5451660156" y="0" type="line"/>
			<point x="1126.8678588867" y="99.9997558594" type="line"/>
			<point x="1322.2135620117" y="134.9997558594" type="line"/>
			<point x="1451.4536132812" y="763" type="line"/>
			<point x="1580" y="1244" type="line"/>
			<point x="1606" y="1363" type="line"/>
			<point x="1597" y="1365" type="line"/>
			<point x="1539" y="1258" type="line"/>
			<point x="1225.1057739258" y="680.498840332" type="line"/>
			<point x="820.4704589844" y="-7" type="line"/>
			<point x="699.3446655273" y="-7" type="line"/>
			<point x="566.4063110352" y="685.8531494141" type="line"/>
			<point x="499" y="1249" type="line"/>
			<point x="485" y="1357" type="line"/>
			<point x="474" y="1355" type="line"/>
			<point x="456" y="1235" type="line"/>
			<point x="364.2885742188" y="753" type="line"/>
			<point x="250.3729858398" y="140.9997558594" type="line"/>
			<point x="457.4469604492" y="99.9997558594" type="line"/>
			<point x="444.8070068359" y="0" type="line"/>
		</contour>
	</outline>
	<anchor name="bottom" x="768" y="0"/>
	<anchor name="top" x="1048" y="1500"/>
</glyph>
<glyph name="N" format="2">
	<unicode hex="004E"/>
	<advance width="1530"/>
	<outline>
		<contour>
			<point x="-67.7534179688" y="0" type="line"/>
			<point x="-69.4307250977" y="99.9997558594" type="line"/>
			<point x="130.4694213867" y="124.9997558594" type="line"/>
			<point x="259.4294433594" y="753" type="line"/>
			<point x="380.1494750977" y="1359.1602783203" type="line"/>
			<point x="184.3362426758" y="1395.1602783203" type="line"/>
			<point x="201.8989257812" y="1500" type="line"/>
			<point x="571.9205322266" y="1500" type="line"/>
			<point x="848.5657958984" y="764.2457275391" type="line"/>
			<point x="958" y="418" type="line"/>
			<point x="990" y="317" type="line"/>
			<point x="1001" y="319" type="line"/>
			<point x="1024" y="440" type="line"/>
			<point x="1165.0452270508" y="751" type="line"/>
			<point x="1287.6452636719" y="1366.6002807617" type="line"/>
			<point x="1068.9409179688" y="1393.6002807617" type="line"/>
			<point x="1079.4387817383" y="1500" type="line"/>
			<point x="1612.3284301758" y="1500" type="line"/>
			<point x="1601.8305664062" y="1393.6002807617" type="line"/>
			<point x="1404.2021484375" y="1366.6002807617" type="line"/>
			<point x="1277.1596069336" y="753" type="line"/>
			<point x="1132.6021118164" y="-8" type="line"/>
			<point x="998.8013305664" y="-8" type="line"/>
			<point x="705.0765991211" y="689.9877929688" type="line"/>
			<point x="507" y="1220" type="line"/>
			<point x="471" y="1324" type="line"/>
			<point x="461" y="1321" type="line"/>
			<point x="442" y="1199" type="line"/>
			<point x="370.5418701172" y="755" type="line"/>
			<point x="240.5818481445" y="124.9997558594" type="line"/>
			<point x="457.840637207" y="99.9997558594" type="line"/>
			<point x="450.5179443359" y="0" type="line"/>
		</contour>
	</outline>
	<anchor name="bottom" x="640" y="0"/>
	<anchor name="top" x="884" y="1500"/>
	<anchor name="engtail" x="1041" y="0"/>
	<anchor name="liga" x="1432" y="0"/>
</glyph>
<glyph name="O" format="2">
	<unicode hex="004F"/>
	<advance width="1528"/>
	<outline>
		<contour>
			<point x="106.0449952692" y="892" type="qcurve" smooth="yes"/>
			<point x="175.0449952692" y="1205"/>
			<point x="673.3106813043" y="1567.651550293"/>
			<point x="963.9983033746" y="1520.714050293" type="qcurve" smooth="yes"/>
			<point x="1245.6319093317" y="1474.8472900391"/>
			<point x="1499.611706695" y="1018.5866699219"/>
			<point x="1429.611706695" y="703" type="qcurve" smooth="yes"/>
			<point x="1347.611706695" y="334"/>
			<point x="869.3750001078" y="-61.1918982928"/>
			<point x="561.5322389215" y="-16.8569335938" type="qcurve" smooth="yes"/>
			<point x="284.6062175395" y="23.6848659599"/>
			<point x="20.0449952692" y="504"/>
		</contour>
		<contour>
			<point x="282.2989015192" y="867" type="qcurve" smooth="yes"/>
			<point x="212.3751344293" y="537.9838867188"/>
			<point x="393.2052125543" y="131.5795898438"/>
			<point x="589.7547731012" y="99.1446533203" type="qcurve" smooth="yes"/>
			<point x="804.9667481989" y="63.2247314453"/>
			<point x="1176.7994508356" y="395.5942382812"/>
			<point x="1245.0111207575" y="695" type="qcurve" smooth="yes"/>
			<point x="1310.6974000543" y="986.66015625"/>
			<point x="1146.34412857" y="1363.3380737305"/>
			<point x="929.3095826715" y="1397.2680053711" type="qcurve" smooth="yes"/>
			<point x="706.8000611871" y="1431.6929321289"/>
			<point x="347.4201173395" y="1174.9990234375"/>
		</contour>
	</outline>
	<anchor name="bottom" x="612" y="0"/>
	<anchor name="center" x="765" y="756"/>
	<anchor name="ogonek" x="844" y="0"/>
	<anchor name="top" x="906" y="1500"/>
	<anchor name="topright" x="1044" y="1500"/>
	<anchor name="tonos" x="230" y="1500"/>
	<anchor name="_yu_dash" x="174" y="795"/>
</glyph>
<glyph name="P" format="2">
	<unicode hex="0050"/>
	<advance width="1239"/>
	<outline>
		<contour>
			<point x="-55.455078125" y="0" type="line"/>
			<point x="-53.1323852539" y="99.9997558594" type="line"/>
			<point x="132.0394897461" y="121.9997558594" type="line"/>
			<point x="251.5861816406" y="735" type="line"/>
			<point x="373.719543457" y="1367.1602783203" type="line"/>
			<point x="175.6345825195" y="1393.1602783203" type="line"/>
			<point x="181.7407226562" y="1500" type="line"/>
			<point x="758.2220458984" y="1500" type="line" smooth="yes"/>
			<point x="1018.7560424805" y="1500"/>
			<point x="1224.6011352539" y="1264"/>
			<point x="1198.2544555664" y="1059" type="qcurve" smooth="yes"/>
			<point x="1173.9077758789" y="865"/>
			<point x="857.7078857422" y="606.7764892578"/>
			<point x="654.9989013672" y="606.7764892578" type="qcurve" smooth="yes"/>
			<point x="539.9240112305" y="606.7764892578"/>
			<point x="373.2755126953" y="628.0466918945"/>
			<point x="324.8350830078" y="639.4520263672" type="qcurve"/>
			<point x="342.8664550781" y="744.5600585938" type="line"/>
			<point x="404.584777832" y="726.5200195312"/>
			<point x="537.1613769531" y="710"/>
			<point x="639.0649414062" y="710" type="qcurve" smooth="yes"/>
			<point x="789.5698852539" y="710"/>
			<point x="999.5205688477" y="883"/>
			<point x="1019.5205688477" y="1062" type="qcurve" smooth="yes"/>
			<point x="1040.5205688477" y="1251"/>
			<point x="880.1245117188" y="1393.5540771484"/>
			<point x="722.415222168" y="1393.5540771484" type="qcurve" smooth="yes"/>
			<point x="562.5824584961" y="1393.5540771484" type="line"/>
			<point x="530.6547241211" y="1364.9846801758" type="line"/>
			<point x="415.9333496094" y="709" type="line"/>
			<point x="307.3866577148" y="127.9997558594" type="line"/>
			<point x="517.8192749023" y="99.9997558594" type="line"/>
			<point x="509.4965820312" y="0" type="line"/>
		</contour>
	</outline>
	<anchor name="bottom" x="634" y="0"/>
	<anchor name="top" x="634" y="1500"/>
</glyph>
<glyph name="Q" format="2">
	<unicode hex="0051"/>
	<advance width="1525"/>
	<outline>
		<contour>
			<point x="100.436706543" y="892" type="qcurve" smooth="yes"/>
			<point x="169.436706543" y="1205"/>
			<point x="666.5595703125" y="1567.651550293"/>
			<point x="957.2471923828" y="1520.714050293" type="qcurve" smooth="yes"/>
			<point x="1238.8807983398" y="1474.8472900391"/>
			<point x="1494.8869018555" y="1018"/>
			<point x="1424.0034179688" y="703" type="qcurve" smooth="yes"/>
			<point x="1341.119934082" y="334"/>
			<point x="837.8698730469" y="-51.8918457031"/>
			<point x="563.5395507812" y="-16.5712280273" type="qcurve" smooth="yes"/>
			<point x="304.1361694336" y="17.7922973633"/>
			<point x="14.436706543" y="504"/>
		</contour>
		<contour>
			<point x="276.690612793" y="867" type="qcurve" smooth="yes"/>
			<point x="206.6481933594" y="537.9838867188"/>
			<point x="389.9079589844" y="126.779296875"/>
			<point x="586.2100219727" y="94.096862793" type="qcurve" smooth="yes"/>
			<point x="801.4219970703" y="58.176940918"/>
			<point x="1170.4263305664" y="395.6535644531"/>
			<point x="1239.4028320312" y="695" type="qcurve" smooth="yes"/>
			<point x="1305.8539428711" y="986.5415039062"/>
			<point x="1139.3455200195" y="1363.3380737305"/>
			<point x="922.5584716797" y="1397.2680053711" type="qcurve" smooth="yes"/>
			<point x="700.0489501953" y="1431.6929321289"/>
			<point x="341.930480957" y="1174.9990234375"/>
		</contour>
		<contour>
			<point x="382" y="-3" type="qcurve"/>
			<point x="878.047668457" y="-230.6285400391" type="line" smooth="yes"/>
			<point x="904.4735107422" y="-219.2257080078"/>
			<point x="999.9125366211" y="-195.1205444336"/>
			<point x="1050.3654174805" y="-135.1957397461" type="qcurve"/>
			<point x="1121.5504760742" y="-182.5679321289" type="line"/>
			<point x="1074.426940918" y="-276.8010253906"/>
			<point x="932.8093261719" y="-392.7889404297"/>
			<point x="838.9025878906" y="-400.4156494141" type="qcurve"/>
			<point x="408.1841430664" y="-197.9694213867" type="line"/>
			<point x="343.0770874023" y="-239.0836791992"/>
			<point x="266.5258789062" y="-261.4731445312"/>
			<point x="201.9663085938" y="-311.7903442383" type="qcurve"/>
			<point x="146.4497680664" y="-242.2688598633" type="line"/>
			<point x="188.5524902344" y="-182.9790039062"/>
			<point x="296" y="5"/>
		</contour>
		<contour>
			<point x="320" y="-53" type="line"/>
			<point x="426" y="75"/>
			<point x="482.4749145508" y="49.3236083984"/>
			<point x="529.188293457" y="115.3368530273" type="qcurve" smooth="yes"/>
			<point x="538.8198852539" y="135.7050170898"/>
			<point x="654" y="332"/>
			<point x="576.4912109375" y="226.5130615234" type="qcurve"/>
			<point x="588.4154052734" y="219.3971557617"/>
			<point x="657.0764160156" y="191.2382202148"/>
			<point x="666.22265625" y="175.2730102539" type="qcurve"/>
			<point x="657.9973144531" y="154.901550293"/>
			<point x="625.8085327148" y="79.2745361328"/>
			<point x="615.5848388672" y="51.6110839844" type="qcurve" smooth="yes"/>
			<point x="574.799987793" y="-0.7244873047"/>
			<point x="506" y="28"/>
			<point x="401" y="-88" type="qcurve"/>
		</contour>
	</outline>
	<anchor name="bottom" x="832" y="0"/>
	<anchor name="top" x="832" y="1500"/>
</glyph>
<glyph name="R" format="2">
	<unicode hex="0052"/>
	<advance width="1278"/>
	<outline>
		<contour>
			<point x="-59.7416992188" y="0" type="line"/>
			<point x="-55.1017456055" y="99.9997558594" type="line"/>
			<point x="132.7984008789" y="128.9997558594" type="line"/>
			<point x="269.2651367188" y="796" type="line"/>
			<point x="370.4918212891" y="1367.1602783203" type="line"/>
			<point x="176.4468383789" y="1393.1602783203" type="line"/>
			<point x="183.28125" y="1500" type="line"/>
			<point x="765.1263427734" y="1500" type="line" smooth="yes"/>
			<point x="958.2261962891" y="1502"/>
			<point x="1198.4038696289" y="1292"/>
			<point x="1179.1853637695" y="1122" type="qcurve" smooth="yes"/>
			<point x="1159.8807373047" y="939"/>
			<point x="845.9978637695" y="721.7770996094"/>
			<point x="681.8641357422" y="721.7770996094" type="qcurve" smooth="yes"/>
			<point x="594.1252441406" y="721.7770996094"/>
			<point x="420.2741699219" y="724.7770996094"/>
			<point x="361.8208007812" y="730.1237792969" type="qcurve"/>
			<point x="386.234375" y="824.6672363281" type="line"/>
			<point x="483.7608642578" y="824.6672363281" type="line"/>
			<point x="616.6875" y="824.6672363281" type="line" smooth="yes"/>
			<point x="782.6540527344" y="824.6672363281"/>
			<point x="986.8001708984" y="970"/>
			<point x="1003.1047973633" y="1127" type="qcurve" smooth="yes"/>
			<point x="1017.1047973633" y="1267"/>
			<point x="846.4847412109" y="1390.6651611328"/>
			<point x="723.8907470703" y="1390.6651611328" type="qcurve" smooth="yes"/>
			<point x="573.3291625977" y="1390.6651611328" type="line"/>
			<point x="544.8782958984" y="1379.3142700195" type="line"/>
			<point x="428.265625" y="755" type="line"/>
			<point x="308.9055786133" y="129.9997558594" type="line"/>
			<point x="512.6209106445" y="99.9997558594" type="line"/>
			<point x="495.9809570312" y="0" type="line"/>
		</contour>
		<contour>
			<point x="635.6095581055" y="768.4931640625" type="line"/>
			<point x="791.5033569336" y="800" type="line"/>
			<point x="802.1987304688" y="718" type="line" smooth="yes"/>
			<point x="832.1002197266" y="520.8206176758"/>
			<point x="961.3148193359" y="106.123046875"/>
			<point x="1161.3496704102" y="103.4397583008" type="qcurve"/>
			<point x="1130.1097412109" y="0" type="line"/>
			<point x="1067.7858886719" y="0" type="line" smooth="yes"/>
			<point x="853.4757080078" y="0"/>
			<point x="683.5771484375" y="419.8071289062"/>
			<point x="645.6547241211" y="701" type="qcurve" smooth="yes"/>
		</contour>
	</outline>
	<anchor name="bottom" x="573" y="0"/>
	<anchor name="top" x="670" y="1500"/>
</glyph>
<glyph name="T" format="2">
	<unicode hex="0054"/>
	<advance width="1224"/>
	<outline>
		<contour>
			<point x="101.412109375" y="1112.6685791016" type="line"/>
			<point x="183.0693359375" y="1500" type="line"/>
			<point x="1331.7525634766" y="1500" type="line"/>
			<point x="1250.0953369141" y="1112.6685791016" type="line"/>
			<point x="1150.0933837891" y="1112.6685791016" type="line"/>
			<point x="1178.4165039062" y="1395.6651611328" type="line"/>
			<point x="833.0905151367" y="1395.6651611328" type="line"/>
			<point x="819.0905151367" y="1375.6651611328" type="line"/>
			<point x="704.1841430664" y="754" type="line"/>
			<point x="587.3840942383" y="124.9997558594" type="line"/>
			<point x="782.1946411133" y="98.9997558594" type="line"/>
			<point x="776.7036743164" y="0" type="line"/>
			<point x="201.4922485352" y="0" type="line"/>
			<point x="206.983215332" y="98.9997558594" type="line"/>
			<point x="411.690246582" y="124.9997558594" type="line"/>
			<point x="532.2503051758" y="754" type="line"/>
			<point x="651.1566772461" y="1375.6651611328" type="line"/>
			<point x="647.1566772461" y="1395.6651611328" type="line"/>
			<point x="291.7381591797" y="1395.6651611328" type="line"/>
			<point x="202.4140625" y="1112.6685791016" type="line"/>
		</contour>
	</outline>
	<anchor name="bottom" x="451" y="0"/>
	<anchor name="center" x="584" y="750"/>
	<anchor name="top" x="732" y="1500"/>
	<anchor name="cy_descender" x="755" y="100"/>
</glyph>
<glyph name="V" format="2">
	<unicode hex="0056"/>
	<advance width="1222"/>
	<outline>
		<contour>
			<point x="15.2222290039" y="1389.1602783203" type="line"/>
			<point x="32.4387207031" y="1500" type="line"/>
			<point x="600.9524536133" y="1500" type="line"/>
			<point x="583.7359619141" y="1389.1602783203" type="line"/>
			<point x="369.786315918" y="1363.1602783203" type="line"/>
			<point x="405.5625610352" y="801.6480712891" type="line"/>
			<point x="438" y="390" type="line"/>
			<point x="442" y="261" type="line"/>
			<point x="460" y="261" type="line"/>
			<point x="527" y="390" type="line"/>
			<point x="777.0823364258" y="826.7282104492" type="line"/>
			<point x="1087.0306396484" y="1363.1602783203" type="line"/>
			<point x="887.2354125977" y="1389.1602783203" type="line"/>
			<point x="900.7980957031" y="1500" type="line"/>
			<point x="1435.2946166992" y="1500" type="line"/>
			<point x="1425.1763916016" y="1389.1602783203" type="line"/>
			<point x="1207.3012084961" y="1363.1602783203" type="line"/>
			<point x="857.974609375" y="745.0863647461" type="line"/>
			<point x="424.7592773438" y="-9.2856445312" type="line"/>
			<point x="292.2194213867" y="-9.2856445312" type="line"/>
			<point x="240.6529541016" y="737.6934814453" type="line"/>
			<point x="213.3345947266" y="1363.1602783203" type="line"/>
		</contour>
	</outline>
	<anchor name="bottom" x="373" y="0"/>
	<anchor name="top" x="743" y="1500"/>
</glyph>
<glyph name="X" format="2">
	<unicode hex="0058"/>
	<advance width="1212"/>
	<outline>
		<contour>
			<point x="-270.6624145508" y="0" type="line"/>
			<point x="-264.3397216797" y="99.9997558594" type="line"/>
			<point x="-74.4935302734" y="124.9997558594" type="line"/>
			<point x="513" y="764" type="line"/>
			<point x="244.1189575195" y="1365.1602783203" type="line"/>
			<point x="47.8162231445" y="1393.1602783203" type="line"/>
			<point x="59.37890625" y="1500" type="line"/>
			<point x="627.460144043" y="1500" type="line"/>
			<point x="615.8974609375" y="1393.1602783203" type="line"/>
			<point x="434.4099121094" y="1368.1602783203" type="line"/>
			<point x="581" y="1027" type="line"/>
			<point x="627" y="913" type="line"/>
			<point x="638" y="913" type="line"/>
			<point x="724" y="1027" type="line"/>
			<point x="1084.6817626953" y="1362.1602783203" type="line"/>
			<point x="889.4769287109" y="1393.1602783203" type="line"/>
			<point x="901.0396118164" y="1500" type="line"/>
			<point x="1434.2599487305" y="1500" type="line"/>
			<point x="1422.697265625" y="1393.1602783203" type="line"/>
			<point x="1229.1337890625" y="1366.1602783203" type="line"/>
			<point x="670" y="808" type="line"/>
			<point x="1017.8220214844" y="125.9997558594" type="line"/>
			<point x="1217.2985839844" y="99.9997558594" type="line"/>
			<point x="1208.9758911133" y="0" type="line"/>
			<point x="622.0924072266" y="0" type="line"/>
			<point x="630.4151000977" y="99.9997558594" type="line"/>
			<point x="827.1743774414" y="124.9997558594" type="line"/>
			<point x="603" y="544" type="line"/>
			<point x="556" y="658" type="line"/>
			<point x="546" y="658" type="line"/>
			<point x="461" y="544" type="line"/>
			<point x="71.9584960938" y="130.9997558594" type="line"/>
			<point x="272.1633300781" y="99.9997558594" type="line"/>
			<point x="264.4468994141" y="0" type="line"/>
		</contour>
	</outline>
	<anchor name="bottom" x="453" y="0"/>
	<anchor name="top" x="723" y="1500"/>
	<anchor name="cy_descender" x="1125" y="100"/>
	<anchor name="center" x="591" y="791"/>
</glyph>
<glyph name="Y" format="2">
	<unicode hex="0059"/>
	<advance width="1282"/>
	<outline>
		<contour>
			<point x="219.1848754883" y="0" type="line"/>
			<point x="225.5075683594" y="98.9997558594" type="line"/>
			<point x="439.8532714844" y="124.9997558594" type="line"/>
			<point x="543.2576293945" y="629.2216796875" type="line"/>
			<point x="374.4902954102" y="942.6273803711" type="line"/>
			<point x="147.4078979492" y="1360.1602783203" type="line"/>
			<point x="-26.9927368164" y="1395.1602783203" type="line"/>
			<point x="-20.4300537109" y="1500" type="line"/>
			<point x="521.5077514648" y="1500" type="line"/>
			<point x="514.9450683594" y="1395.1602783203" type="line"/>
			<point x="341.4575195312" y="1370.1602783203" type="line"/>
			<point x="509.6326904297" y="1032.6005249023" type="line"/>
			<point x="668.4906005859" y="753.5490112305" type="line"/>
			<point x="670.4906005859" y="753.5490112305" type="line"/>
			<point x="939.7322387695" y="1070.4306030273" type="line"/>
			<point x="1189.0837402344" y="1362.1602783203" type="line"/>
			<point x="1011.9877929688" y="1395.1602783203" type="line"/>
			<point x="1018.5504760742" y="1500" type="line"/>
			<point x="1512.5295410156" y="1500" type="line"/>
			<point x="1505.9668579102" y="1395.1602783203" type="line"/>
			<point x="1332.5662231445" y="1361.1602783203" type="line"/>
			<point x="1000.9945068359" y="984.4630126953" type="line"/>
			<point x="722.6957397461" y="690.592590332" type="line"/>
			<point x="612.0270996094" y="124.9997558594" type="line"/>
			<point x="825.1010742188" y="98.9997558594" type="line"/>
			<point x="818.7783813477" y="0" type="line"/>
		</contour>
	</outline>
	<anchor name="bottom" x="443" y="0"/>
	<anchor name="top" x="731" y="1500"/>
	<anchor name="tonos" x="-13" y="1500"/>
	<anchor name="center" x="553" y="579"/>
</glyph>
<glyph name="c" format="2">
	<unicode hex="0063"/>
	<advance width="872"/>
	<outline>
		<contour>
			<point x="10.8477783203" y="502.9323120117" type="qcurve" smooth="yes"/>
			<point x="65.3883056641" y="737.0944213867"/>
			<point x="377.8115234375" y="1020.8646240234"/>
			<point x="573.8451538086" y="1020.8646240234" type="qcurve" smooth="yes"/>
			<point x="688.3302001953" y="1020.8646240234"/>
			<point x="840.7364501953" y="927.8646240234"/>
			<point x="840.7364501953" y="839.8646240234" type="qcurve" smooth="yes"/>
			<point x="840.7364501953" y="773.8646240234"/>
			<point x="739.8917236328" y="698.8646240234"/>
			<point x="682.5467529297" y="685.8646240234" type="qcurve"/>
			<point x="644.0086669922" y="706.8646240234" type="line"/>
			<point x="654.0086669922" y="911.8646240234" type="line" smooth="yes"/>
			<point x="656.0086669922" y="933.8646240234"/>
			<point x="591.6698608398" y="909.240234375"/>
			<point x="531.7861938477" y="909.240234375" type="qcurve" smooth="yes"/>
			<point x="405.2376708984" y="909.240234375"/>
			<point x="214.9239501953" y="684.2295532227"/>
			<point x="171.3834228516" y="491.9323120117" type="qcurve" smooth="yes"/>
			<point x="124.9780273438" y="288.9053344727"/>
			<point x="208.3075561523" y="114.0661010742"/>
			<point x="346.967956543" y="114.0661010742" type="qcurve" smooth="yes"/>
			<point x="485.5104980469" y="114.0661010742"/>
			<point x="676.981262207" y="225.4624633789"/>
			<point x="726.3522338867" y="274.5336914062" type="qcurve"/>
			<point x="772.7683105469" y="224.721496582" type="line"/>
			<point x="770.7683105469" y="181.5595703125" type="line"/>
			<point x="718.0272216797" y="126.65234375"/>
			<point x="445.983581543" y="-15"/>
			<point x="291.6633300781" y="-15" type="qcurve" smooth="yes"/>
			<point x="94.700012207" y="-15"/>
			<point x="-46.6251831055" y="254.9729003906"/>
		</contour>
	</outline>
	<anchor name="bottom" x="343" y="0"/>
	<anchor name="top" x="600" y="1000"/>
</glyph>
<glyph name="f" format="2">
	<unicode hex="0066"/>
	<advance width="490"/>
	<outline>
		<contour>
			<point x="-326.007019043" y="-445" type="line" smooth="yes"/>
			<point x="-320.1154174805" y="-355.0888671875" type="line"/>
			<point x="-242.850769043" y="-350.5523681641" type="line" smooth="yes"/>
			<point x="-115.2169799805" y="-346.0158691406"/>
			<point x="-5.4302368164" y="-201.5207519531"/>
			<point x="48.7520141602" y="100.4792480469" type="qcurve" smooth="yes"/>
			<point x="195.0151977539" y="911.3913574219" type="line"/>
			<point x="206.0158081055" y="957.506652832" type="line"/>
			<point x="252.3408813477" y="1223.0551757812" type="line" smooth="yes"/>
			<point x="283.1773071289" y="1398.9307861328"/>
			<point x="465.8508911133" y="1536.0551757812"/>
			<point x="561.7633666992" y="1536.0551757812" type="qcurve" smooth="yes"/>
			<point x="634.3242797852" y="1536.0551757812"/>
			<point x="725.6171264648" y="1482.0551757812"/>
			<point x="725.6171264648" y="1446.0551757812" type="qcurve" smooth="yes"/>
			<point x="725.6171264648" y="1416.0551757812"/>
			<point x="680.579284668" y="1373.0551757812"/>
			<point x="662.579284668" y="1373.0551757812" type="qcurve" smooth="yes"/>
			<point x="652.579284668" y="1373.0551757812"/>
			<point x="644.579284668" y="1386.0551757812"/>
			<point x="645.579284668" y="1397.0551757812" type="qcurve" smooth="yes"/>
			<point x="646.579284668" y="1365.7559204102"/>
			<point x="611.4638061523" y="1393.4774169922"/>
			<point x="573.2018432617" y="1393.4774169922" type="qcurve" smooth="yes"/>
			<point x="517.1432495117" y="1393.4774169922"/>
			<point x="415.6982421875" y="1311.9819335938"/>
			<point x="401.069152832" y="1217.0551757812" type="qcurve" smooth="yes"/>
			<point x="361.6447143555" y="953.5532836914" type="line"/>
			<point x="360.5292358398" y="926.2747802734" type="line"/>
			<point x="226.1736450195" y="199" type="line" smooth="yes"/>
			<point x="147.0759277344" y="-230.3433837891"/>
			<point x="-21.8344116211" y="-464.2408447266"/>
			<point x="-174.7559204102" y="-464" type="qcurve"/>
		</contour>
		<contour>
			<point x="48.7139892578" y="884.3460083008" type="line"/>
			<point x="39.7839355469" y="950.5765991211" type="line"/>
			<point x="210.2489624023" y="1002.8317871094" type="line"/>
			<point x="542.2597045898" y="1014.5986328125" type="line"/>
			<point x="521.8646240234" y="889.4159545898" type="line"/>
			<point x="313.0160522461" y="897.7177734375" type="line"/>
			<point x="227.5560913086" y="874.0803222656" type="line"/>
		</contour>
	</outline>
	<anchor name="bottom" x="217" y="0"/>
	<anchor name="top" x="554" y="1536"/>
</glyph>
<glyph name="g" format="2">
	<unicode hex="0067"/>
	<advance width="965"/>
	<outline>
		<contour>
			<point x="-65.5966796875" y="247.3378295898" type="qcurve" smooth="yes"/>
			<point x="-56.1910400391" y="502.3607788086"/>
			<point x="358.9749145508" y="1008.4457397461"/>
			<point x="590.1232910156" y="1008.4457397461" type="qcurve" smooth="yes"/>
			<point x="636.6107177734" y="1008.4457397461"/>
			<point x="713.4078979492" y="980.4457397461"/>
			<point x="735.895324707" y="963.4457397461" type="qcurve"/>
			<point x="780.7393188477" y="1023.4457397461" type="line"/>
			<point x="843.3540649414" y="1023.4457397461" type="line"/>
			<point x="854.391418457" y="769.8717651367" type="line"/>
			<point x="824.4229125977" y="620" type="line" smooth="yes"/>
			<point x="782.6442871094" y="428.7110595703"/>
			<point x="752.4467773438" y="230"/>
			<point x="718.2691040039" y="57" type="qcurve" smooth="yes"/>
			<point x="661.2691040039" y="-231.8018798828"/>
			<point x="275.7752685547" y="-464"/>
			<point x="131.8255615234" y="-464" type="qcurve"/>
			<point x="-11.5911254883" y="-424" type="line"/>
			<point x="-4.6365356445" y="-354.5893554688" type="line"/>
			<point x="180.9292602539" y="-341.0888671875" type="line" smooth="yes"/>
			<point x="324.2192993164" y="-330.0864868164"/>
			<point x="526.0728759766" y="-132.1786499023"/>
			<point x="560.9087524414" y="78.0241699219" type="qcurve" smooth="yes"/>
			<point x="573.87109375" y="163.0408935547" type="line"/>
			<point x="499.4178466797" y="113.4874267578"/>
			<point x="299.0115356445" y="9"/>
			<point x="178.5186157227" y="9" type="qcurve" smooth="yes"/>
			<point x="61.7504882812" y="9"/>
			<point x="-68.9771728516" y="143.5989379883"/>
		</contour>
		<contour>
			<point x="102.7374267578" y="261.3378295898" type="qcurve" smooth="yes"/>
			<point x="99.2248535156" y="181.2014160156"/>
			<point x="184.0823364258" y="133.7559814453"/>
			<point x="257.7427368164" y="133.7559814453" type="qcurve" smooth="yes"/>
			<point x="369.8585205078" y="133.7559814453"/>
			<point x="598.9035644531" y="295.2731323242"/>
			<point x="631.690246582" y="456.3148193359" type="qcurve" smooth="yes"/>
			<point x="700.1757202148" y="796.9612426758" type="line"/>
			<point x="694.4650268555" y="829.9612426758"/>
			<point x="619.4312133789" y="882.9612426758"/>
			<point x="556.4136352539" y="882.9612426758" type="qcurve" smooth="yes"/>
			<point x="368.8201293945" y="882.9612426758"/>
			<point x="109.0974731445" y="456.4132080078"/>
		</contour>
	</outline>
	<anchor name="bottom" x="324" y="-416"/>
	<anchor name="top" x="603" y="1000"/>
</glyph>
<glyph name="l" format="2">
	<unicode hex="006C"/>
	<advance width="516"/>
	<outline>
		<contour>
			<point x="125.924987793" y="-21" type="line"/>
			<point x="61.2719116211" y="92.8059082031" type="line"/>
			<point x="170.233581543" y="656" type="line"/>
			<point x="294.622253418" y="1416.9438476562" type="line"/>
			<point x="175.0545043945" y="1470.716796875" type="line"/>
			<point x="201.418762207" y="1537.08203125" type="line"/>
			<point x="418.5880737305" y="1580.8894042969" type="line"/>
			<point x="480.8942260742" y="1514.390625" type="line"/>
			<point x="321.0768432617" y="622" type="line"/>
			<point x="236.7135620117" y="136.001953125" type="line"/>
			<point x="369.4397583008" y="150.001953125" type="line"/>
			<point x="369.4397583008" y="66" type="line"/>
		</contour>
	</outline>
	<anchor name="bottom" x="201" y="0"/>
	<anchor name="center" x="236" y="770"/>
	<anchor name="top" x="436" y="1534"/>
	<anchor name="topright" x="492" y="1000"/>
	<anchor name="centerright" x="707" y="742"/>
	<anchor name="liga" x="567" y="0"/>
</glyph>
<glyph name="m" format="2">
	<unicode hex="006D"/>
	<advance width="1701"/>
	<outline>
		<contour>
			<point x="48.1540527344" y="-24.9995117188" type="line"/>
			<point x="27.3850097656" y="50.5390625" type="line"/>
			<point x="138.0002441406" y="527" type="line"/>
			<point x="187.0765991211" y="838.9048461914" type="line"/>
			<point x="57.6421508789" y="834.9048461914" type="line"/>
			<point x="61.5967407227" y="925.2024536133" type="line"/>
			<point x="245.7282104492" y="1010.2024536133" type="line"/>
			<point x="311.9198608398" y="1010.2024536133" type="line"/>
			<point x="338.1246948242" y="717.7162475586" type="line"/>
			<point x="313.1511230469" y="588" type="line"/>
			<point x="208.1511230469" y="88" type="line"/>
			<point x="229.1511230469" y="5" type="line"/>
		</contour>
		<contour>
			<point x="674.1326904297" y="-7.4230957031" type="line"/>
			<point x="646.1326904297" y="69.5769042969" type="line"/>
			<point x="800.6037597656" y="761.7793579102" type="line" smooth="yes"/>
			<point x="814.3385620117" y="818.5209350586"/>
			<point x="758.5018310547" y="885.717956543"/>
			<point x="662.8444824219" y="885.717956543" type="qcurve" smooth="yes"/>
			<point x="580.7929077148" y="885.717956543"/>
			<point x="322.7244262695" y="667.2310791016"/>
			<point x="262.2065429688" y="640.9031982422" type="qcurve"/>
			<point x="243.8334960938" y="728.3410644531" type="line"/>
			<point x="327.4479370117" y="841.1709594727"/>
			<point x="642.0452880859" y="1016.7793579102"/>
			<point x="756.4016723633" y="1016.7793579102" type="qcurve" smooth="yes"/>
			<point x="878.7088012695" y="1016.7793579102"/>
			<point x="989.2854003906" y="873.4025878906"/>
			<point x="956.9353637695" y="741.7793579102" type="qcurve" smooth="yes"/>
			<point x="826.5911865234" y="128.1528320312" type="line"/>
			<point x="868.1292724609" y="26.3071289062" type="line"/>
		</contour>
		<contour>
			<point x="1312.8759765625" y="-18.4997558594" type="line"/>
			<point x="1269.5305175781" y="115.3833007812" type="line"/>
			<point x="1416.9901733398" y="781.7141113281" type="line" smooth="yes"/>
			<point x="1425.7249755859" y="819.6747436523"/>
			<point x="1366.0638427734" y="886.1596679688"/>
			<point x="1284.7269287109" y="886.1596679688" type="qcurve" smooth="yes"/>
			<point x="1191.0261230469" y="886.1596679688"/>
			<point x="930.0559692383" y="657.6248168945"/>
			<point x="879.0592041016" y="624.6993408203" type="qcurve"/>
			<point x="854.3599243164" y="714.2024536133" type="line"/>
			<point x="937.5192260742" y="828.8552856445"/>
			<point x="1244.3114624023" y="1018.2024536133"/>
			<point x="1368.0670776367" y="1018.2024536133" type="qcurve" smooth="yes"/>
			<point x="1476.1618041992" y="1018.2024536133"/>
			<point x="1611.8939208984" y="888.9019165039"/>
			<point x="1573.8334350586" y="741.2024536133" type="qcurve" smooth="yes"/>
			<point x="1428.5808105469" y="134.001953125" type="line"/>
			<point x="1578.3907470703" y="134.001953125" type="line"/>
			<point x="1578.3907470703" y="46" type="line"/>
		</contour>
	</outline>
	<anchor name="bottom" x="958" y="0"/>
	<anchor name="top" x="958" y="1000"/>
	<anchor name="cy_descender" x="1572" y="134"/>
</glyph>
<glyph name="n" format="2">
	<unicode hex="006E"/>
	<advance width="1097"/>
	<outline>
		<contour>
			<point x="51.8171386719" y="-14.8168945312" type="line"/>
			<point x="31.0368652344" y="64.1831054688" type="line"/>
			<point x="138.0002441406" y="527" type="line"/>
			<point x="191.8910522461" y="838.8372802734" type="line"/>
			<point x="57.6421508789" y="834.8372802734" type="line"/>
			<point x="61.5967407227" y="925.1348876953" type="line"/>
			<point x="240.5360717773" y="1007.7264404297" type="line"/>
			<point x="311.9198608398" y="1007.7264404297" type="line"/>
			<point x="336.3806762695" y="723.0137939453" type="line"/>
			<point x="313.9567260742" y="598.1348876953" type="line"/>
			<point x="204.0339355469" y="85.1831054688" type="line"/>
			<point x="230.8142089844" y="2.1831054688" type="line"/>
		</contour>
		<contour>
			<point x="688.7802734375" y="-14" type="line"/>
			<point x="664.7591552734" y="75" type="line"/>
			<point x="811.5251464844" y="747.4624023438" type="line" smooth="yes"/>
			<point x="824.2994384766" y="806.2920532227"/>
			<point x="759.41015625" y="883.6168823242"/>
			<point x="675.6931762695" y="883.6168823242" type="qcurve" smooth="yes"/>
			<point x="588.7172241211" y="883.6168823242"/>
			<point x="384.3369750977" y="734.6077880859"/>
			<point x="267.2854003906" y="604.6421508789" type="qcurve"/>
			<point x="243.0302124023" y="695.0025634766" type="line"/>
			<point x="324.2770996094" y="846.3009643555"/>
			<point x="616.6747436523" y="1026.1347045898"/>
			<point x="721.5158081055" y="1026.1347045898" type="qcurve" smooth="yes"/>
			<point x="860.6889038086" y="1026.1347045898"/>
			<point x="995.5051879883" y="852.8805541992"/>
			<point x="971.5939331055" y="747.1347045898" type="qcurve" smooth="yes"/>
			<point x="830.2550048828" y="134.001953125" type="line"/>
			<point x="976.50390625" y="134.001953125" type="line"/>
			<point x="976.50390625" y="46" type="line"/>
		</contour>
	</outline>
	<anchor name="bottom" x="522" y="0"/>
	<anchor name="top" x="602" y="1000"/>
	<anchor name="liga" x="1173" y="0"/>
</glyph>
<glyph name="p" format="2">
	<unicode hex="0070"/>
	<advance width="1038"/>
	<outline>
		<contour>
			<point x="-33.1716308594" y="-360.2702636719" type="line"/>
			<point x="164.1359863281" y="576" type="line"/>
			<point x="187.6693725586" y="729.7427978516" type="line"/>
			<point x="136.0541381836" y="950.3968505859" type="line"/>
			<point x="238.3598022461" y="1023.9727783203" type="line"/>
			<point x="300.1666870117" y="1023.9727783203" type="line"/>
			<point x="335.8157958984" y="782.1347045898" type="line"/>
			<point x="422.6789550781" y="879.0891113281"/>
			<point x="654.8142700195" y="1023.9727783203"/>
			<point x="774.0361938477" y="1023.9727783203" type="qcurve" smooth="yes"/>
			<point x="879.8493652344" y="1023.9727783203"/>
			<point x="996.8303222656" y="896.9282836914"/>
			<point x="991.3837890625" y="722.0944213867" type="qcurve" smooth="yes"/>
			<point x="985.4451293945" y="428.9188232422"/>
			<point x="585.9778442383" y="-7"/>
			<point x="342.6124267578" y="-7" type="qcurve" smooth="yes"/>
			<point x="307.7696533203" y="-7"/>
			<point x="235.7947998047" y="16"/>
			<point x="208.0180664062" y="36" type="qcurve"/>
			<point x="137.1774902344" y="-312.2482910156" type="line"/>
			<point x="274.7452392578" y="-352.634765625" type="line"/>
			<point x="246.3809814453" y="-433" type="line"/>
			<point x="100.5576171875" y="-468.3459472656" type="line"/>
		</contour>
		<contour>
			<point x="239.670715332" y="201.4169311523" type="line"/>
			<point x="239.670715332" y="162.4844970703"/>
			<point x="310.2210083008" y="116.4844970703"/>
			<point x="371.6832885742" y="116.4844970703" type="qcurve" smooth="yes"/>
			<point x="555.8877563477" y="116.4844970703"/>
			<point x="813.3619995117" y="480.5944824219"/>
			<point x="818.6560058594" y="717.0944213867" type="qcurve" smooth="yes"/>
			<point x="823.7015991211" y="838.4322509766"/>
			<point x="747.9752807617" y="890.3483886719"/>
			<point x="681.4925537109" y="889.3483886719" type="qcurve" smooth="yes"/>
			<point x="597.0904541016" y="888.3483886719"/>
			<point x="391.4481811523" y="745.4183349609"/>
			<point x="327.8751831055" y="660.4183349609" type="qcurve"/>
			<point x="309.0180664062" y="575" type="line"/>
		</contour>
	</outline>
	<anchor name="bottom" x="599" y="0"/>
	<anchor name="top" x="599" y="1000"/>
</glyph>
<glyph name="t" format="2">
	<unicode hex="0074"/>
	<advance width="528"/>
	<outline>
		<contour>
			<point x="138.6229248047" y="-15" type="line"/>
			<point x="41.8936767578" y="47" type="line"/>
			<point x="123.8936767578" y="512" type="line"/>
			<point x="177.5921020508" y="863.264465332" type="line"/>
			<point x="17.1690063477" y="879.879699707" type="line"/>
			<point x="30.0291137695" y="947.6918945312" type="line"/>
			<point x="132.0322875977" y="962.7427978516"/>
			<point x="275.4079589844" y="1243.3826904297"/>
			<point x="283.1322631836" y="1247.1348876953" type="qcurve"/>
			<point x="369.1204223633" y="1247.1348876953" type="line"/>
			<point x="391.9661254883" y="1189.2508544922" type="line"/>
			<point x="281.4625244141" y="524" type="line"/>
			<point x="228.0567626953" y="121.7062988281" type="line"/>
			<point x="370.4167480469" y="141.7062988281" type="line"/>
			<point x="370.4167480469" y="58" type="line"/>
		</contour>
		<contour>
			<point x="265.067565918" y="889.2514648438" type="line"/>
			<point x="305.694519043" y="997.9703979492" type="line"/>
			<point x="569.1923217773" y="1012.6206665039" type="line"/>
			<point x="573.215637207" y="915.2514648438" type="line"/>
		</contour>
	</outline>
	<anchor name="bottom" x="149" y="0"/>
	<anchor name="center" x="262" y="622"/>
	<anchor name="top" x="322" y="1179"/>
	<anchor name="topright" x="600" y="920"/>
</glyph>
<glyph name="u" format="2">
	<unicode hex="0075"/>
	<advance width="1096"/>
	<outline>
		<contour>
			<point x="756.9290161133" y="-8" type="line"/>
			<point x="696.1604614258" y="124.4599609375" type="line"/>
			<point x="698.6059570312" y="292.4393920898" type="line"/>
			<point x="836.5822753906" y="903.962890625" type="line"/>
			<point x="801.4284667969" y="991.0012207031" type="line"/>
			<point x="971.2717285156" y="1031.2700195312" type="line"/>
			<point x="1021.771484375" y="952.2700195312" type="line"/>
			<point x="846.1585083008" y="234" type="line"/>
			<point x="849.5850219727" y="132.5246582031" type="line"/>
			<point x="974.2203979492" y="132.5246582031" type="line"/>
			<point x="975.174987793" y="47" type="line"/>
		</contour>
		<contour>
			<point x="73.2723999023" y="272" type="qcurve" smooth="yes"/>
			<point x="193.2398681641" y="848.4497070312" type="line"/>
			<point x="56.9909667969" y="836.4497070312" type="line"/>
			<point x="59.9455566406" y="924.2700195312" type="line"/>
			<point x="249.8460693359" y="1010.2700195312" type="line"/>
			<point x="317.3453369141" y="1010.2700195312" type="line"/>
			<point x="354.5753173828" y="902.6945800781" type="line"/>
			<point x="232.3114013672" y="238.3251342773" type="line" smooth="yes"/>
			<point x="221.1505737305" y="179.25390625"/>
			<point x="294.1581420898" y="119.5777587891"/>
			<point x="375.5975952148" y="119.5777587891" type="qcurve" smooth="yes"/>
			<point x="457.5006713867" y="119.5777587891"/>
			<point x="657.0036621094" y="255.0305786133"/>
			<point x="771.2601928711" y="345.7276000977" type="qcurve"/>
			<point x="776.6864624023" y="253.9478759766" type="line"/>
			<point x="689.4008178711" y="146.7414550781"/>
			<point x="419.7495727539" y="-7"/>
			<point x="281.975402832" y="-7" type="qcurve" smooth="yes"/>
			<point x="169.0840454102" y="-7"/>
			<point x="42.9647827148" y="127"/>
		</contour>
	</outline>
	<anchor name="bottom" x="404" y="0"/>
	<anchor name="ogonek" x="871" y="20"/>
	<anchor name="top" x="572" y="1000"/>
	<anchor name="topright" x="915" y="1000"/>
	<anchor name="cy_descender" x="1018" y="134"/>
</glyph>
<glyph name="v" format="2">
	<unicode hex="0076"/>
	<advance width="999"/>
	<outline>
		<contour>
			<point x="227.0394897461" y="-10.2856445312" type="line"/>
			<point x="177.2607421875" y="497.5554199219" type="line"/>
			<point x="147.5020751953" y="823.3900146484" type="line"/>
			<point x="44.9797973633" y="822.2991943359" type="line"/>
			<point x="48.934387207" y="913.5968017578" type="line"/>
			<point x="232.384765625" y="1011.1348876953" type="line"/>
			<point x="301.9990234375" y="1011.1348876953" type="line"/>
			<point x="328.243347168" y="556.5382080078" type="line"/>
			<point x="348.6834716797" y="255.2239990234" type="line"/>
			<point x="352.6119995117" y="160.9877319336" type="line"/>
			<point x="354.6119995117" y="160.9877319336" type="line"/>
			<point x="421.6836547852" y="250.4557495117" type="line"/>
			<point x="595.0044555664" y="481.8725585938"/>
			<point x="704.3261108398" y="656.3067626953"/>
			<point x="707.3261108398" y="720.923828125" type="qcurve" smooth="yes"/>
			<point x="710.3261108398" y="797.4127197266"/>
			<point x="620.2243652344" y="911.8991088867"/>
			<point x="622.2243652344" y="952.4757080078" type="qcurve" smooth="yes"/>
			<point x="623.2243652344" y="988.7955932617"/>
			<point x="691.1973876953" y="1052.6026000977"/>
			<point x="738.5924682617" y="1052.6026000977" type="qcurve" smooth="yes"/>
			<point x="781.0330200195" y="1052.6026000977"/>
			<point x="872.7554931641" y="960.2396240234"/>
			<point x="868.7554931641" y="854.2520141602" type="qcurve" smooth="yes"/>
			<point x="863.7554931641" y="732.1263427734"/>
			<point x="641.5565795898" y="365.1384887695"/>
			<point x="333.809753418" y="-10.2856445312" type="qcurve"/>
		</contour>
	</outline>
	<anchor name="bottom" x="513" y="0"/>
	<anchor name="top" x="513" y="1000"/>
</glyph>
<glyph name="x" format="2">
	<unicode hex="0078"/>
	<advance width="965"/>
	<outline>
		<contour>
			<point x="91.897644043" y="-12.4284667969" type="qcurve"/>
			<point x="-7.9092407227" y="38.5715332031" type="line"/>
			<point x="7.2955932617" y="116.9145507812" type="line"/>
			<point x="151.0358276367" y="119.9145507812" type="line" smooth="yes"/>
			<point x="166.514465332" y="120.6288452148"/>
			<point x="219.5780639648" y="184.7139282227"/>
			<point x="235.5072631836" y="213.8609008789" type="qcurve" smooth="yes"/>
			<point x="282.2100219727" y="288.5858154297"/>
			<point x="347.657409668" y="381.3786621094"/>
			<point x="415.1114501953" y="491.677734375" type="qcurve"/>
			<point x="296.1439819336" y="860.7464599609" type="line"/>
			<point x="163.6438598633" y="839.8372802734" type="line"/>
			<point x="162.598449707" y="930.1348876953" type="line"/>
			<point x="354.6901245117" y="1017.1348876953" type="line"/>
			<point x="433.1889038086" y="998.1348876953" type="line"/>
			<point x="497.3005981445" y="718.0456542969" type="line"/>
			<point x="511.8680419922" y="661.8232421875" type="line"/>
			<point x="513.8680419922" y="661.8232421875" type="line"/>
			<point x="556.2886962891" y="726.8031005859" type="line" smooth="yes"/>
			<point x="581.9627685547" y="770.8298339844"/>
			<point x="620.4122924805" y="837.2184448242"/>
			<point x="655.6543579102" y="887.9909057617" type="qcurve" smooth="yes"/>
			<point x="700.4019165039" y="953.1307983398"/>
			<point x="805.6363525391" y="1023.7062988281"/>
			<point x="847.9364624023" y="1023.7062988281" type="qcurve" smooth="yes"/>
			<point x="886.6345214844" y="1023.7062988281"/>
			<point x="913.6621704102" y="976.526184082"/>
			<point x="912.6621704102" y="936.526184082" type="qcurve" smooth="yes"/>
			<point x="910.6621704102" y="896.526184082"/>
			<point x="864.8422851562" y="843.7062988281"/>
			<point x="846.8422851562" y="843.7062988281" type="qcurve"/>
			<point x="832.8422851562" y="854.7062988281" type="line"/>
			<point x="831.8656005859" y="873.2064208984" type="line" smooth="yes"/>
			<point x="829.9122314453" y="865.7659912109"/>
			<point x="819.6708374023" y="878.0106811523"/>
			<point x="810.0272216797" y="878.0106811523" type="qcurve" smooth="yes"/>
			<point x="795.8831787109" y="878.0106811523"/>
			<point x="728.5759887695" y="809.053894043"/>
			<point x="679.6593017578" y="738.1696777344" type="qcurve" smooth="yes"/>
			<point x="600.2076416016" y="618.8786010742"/>
			<point x="612.6468505859" y="642.6715698242"/>
			<point x="554.5264892578" y="544.6115112305" type="qcurve"/>
			<point x="688.1720581055" y="122.8591918945" type="line"/>
			<point x="799.7630004883" y="122.8591918945" type="line"/>
			<point x="796.7630004883" y="45.8572387695" type="line"/>
			<point x="628.325378418" y="-11.1427612305" type="line"/>
			<point x="548.018737793" y="6.8572387695" type="line"/>
			<point x="468.0712280273" y="324.8115234375" type="line"/>
			<point x="451.4236450195" y="384.5020141602" type="line"/>
			<point x="449.4236450195" y="384.5020141602" type="line"/>
			<point x="412.5433349609" y="325.5897216797" type="line"/>
			<point x="383.9201049805" y="270.057800293"/>
			<point x="343.2697143555" y="191.2161254883"/>
			<point x="320.7883300781" y="156.7974853516" type="qcurve" smooth="yes"/>
			<point x="264.3538208008" y="75.8891601562"/>
			<point x="142.0828857422" y="-22.6836547852"/>
		</contour>
	</outline>
	<anchor name="bottom" x="522" y="0"/>
	<anchor name="top" x="522" y="1000"/>
	<anchor name="cy_descender" x="832" y="134"/>
	<anchor name="center" x="432" y="502"/>
</glyph>
<glyph name="z" format="2">
	<unicode hex="007A"/>
	<advance width="715"/>
	<outline>
		<contour>
			<point x="-15.3041381836" y="-2.3950805664" type="line"/>
			<point x="-96.9997558594" y="63.7655639648" type="line"/>
			<point x="1.5" y="191.2072753906"/>
			<point x="215.9318847656" y="486.7548217773"/>
			<point x="276.7498168945" y="569.1602172852" type="qcurve" smooth="yes"/>
			<point x="343.9691162109" y="662.1602172852"/>
			<point x="421.9176635742" y="774.5127563477"/>
			<point x="490.8070068359" y="862.2528076172" type="qcurve"/>
			<point x="196.3326416016" y="865.9451904297" type="line"/>
			<point x="165.7308349609" y="810.1312255859" type="line"/>
			<point x="53.0943603516" y="820.1312255859" type="line"/>
			<point x="82.6951904297" y="982.1348876953" type="line"/>
			<point x="113.6951904297" y="1011.1348876953" type="line"/>
			<point x="703.1343994141" y="1002.1348876953" type="line"/>
			<point x="713.064453125" y="937.6011962891" type="line"/>
			<point x="640.7158203125" y="829.6011962891"/>
			<point x="484.2001342773" y="621.486328125"/>
			<point x="404.4761962891" y="505.418762207" type="qcurve" smooth="yes"/>
			<point x="331.5269775391" y="400.0133666992"/>
			<point x="215.5798339844" y="254.1771850586"/>
			<point x="141.5121459961" y="195.1538696289" type="qcurve"/>
			<point x="528.6211547852" y="153.1102294922" type="line"/>
			<point x="548.3701782227" y="172.5775146484" type="line"/>
			<point x="636.2835693359" y="149.1524047852" type="line"/>
			<point x="593.8824462891" y="-10" type="line"/>
			<point x="564.8824462891" y="-29" type="line"/>
			<point x="48.4459228516" y="66.0932617188" type="line"/>
		</contour>
	</outline>
	<anchor name="bottom" x="443" y="0"/>
	<anchor name="top" x="463" y="1000"/>
	<anchor name="_liga" x="0" y="0"/>
</glyph>
